<svg width="26" height="27" viewBox="0 0 26 27" fill="none" xmlns="http://www.w3.org/2000/svg">
<g id="ArrowLeft">
<path id="Vector" d="M22.7502 13.518C22.7502 13.7335 22.6645 13.9402 22.5122 14.0926C22.3598 14.2449 22.1531 14.3305 21.9377 14.3305H6.02382L11.95 20.2557C12.0255 20.3312 12.0854 20.4208 12.1262 20.5194C12.1671 20.6181 12.1881 20.7238 12.1881 20.8305C12.1881 20.9373 12.1671 21.043 12.1262 21.1416C12.0854 21.2403 12.0255 21.3299 11.95 21.4054C11.8745 21.4809 11.7849 21.5407 11.6863 21.5816C11.5876 21.6225 11.4819 21.6435 11.3752 21.6435C11.2684 21.6435 11.1627 21.6225 11.064 21.5816C10.9654 21.5407 10.8758 21.4809 10.8003 21.4054L3.48781 14.0929C3.41226 14.0174 3.35233 13.9278 3.31145 13.8292C3.27056 13.7305 3.24951 13.6248 3.24951 13.518C3.24951 13.4113 3.27056 13.3055 3.31145 13.2069C3.35233 13.1083 3.41226 13.0186 3.48781 12.9432L10.8003 5.63069C10.9528 5.47823 11.1595 5.39258 11.3752 5.39258C11.5908 5.39258 11.7975 5.47823 11.95 5.63069C12.1025 5.78314 12.1881 5.98992 12.1881 6.20553C12.1881 6.42114 12.1025 6.62792 11.95 6.78037L6.02382 12.7055H21.9377C22.1531 12.7055 22.3598 12.7911 22.5122 12.9435C22.6645 13.0959 22.7502 13.3025 22.7502 13.518Z" fill="black"/>
</g>
</svg>
